<svg width="21" height="20" viewBox="0 0 21 20" fill="none" xmlns="http://www.w3.org/2000/svg">
<path id="Star 3" d="M9.65785 1.59191C9.92292 0.77609 11.0771 0.77609 11.3422 1.59191L12.9851 6.64835C13.1037 7.01319 13.4436 7.26021 13.8273 7.26021H19.1439C20.0017 7.26021 20.3584 8.3579 19.6644 8.8621L15.3631 11.9872C15.0528 12.2126 14.9229 12.6123 15.0415 12.9772L16.6844 18.0336C16.9495 18.8494 16.0157 19.5278 15.3218 19.0236L11.0205 15.8986C10.7101 15.6731 10.2899 15.6731 9.97952 15.8986L5.67826 19.0236C4.98428 19.5278 4.05054 18.8494 4.31561 18.0336L5.95855 12.9772C6.0771 12.6123 5.94723 12.2126 5.63687 11.9872L1.33561 8.8621C0.641633 8.3579 0.998291 7.26021 1.8561 7.26021H7.17275C7.55637 7.26021 7.89637 7.01319 8.01491 6.64835L9.65785 1.59191Z" fill="#DC0008" fill-opacity="0.9"/>
</svg>
