<svg width="23" height="21" viewBox="0 0 23 21" fill="none" xmlns="http://www.w3.org/2000/svg">
<path id="Star 1" d="M10.4676 0.927051C10.767 0.00574064 12.0704 0.00573969 12.3698 0.92705L14.2251 6.63729C14.359 7.04931 14.743 7.32827 15.1762 7.32827H21.1803C22.149 7.32827 22.5518 8.56789 21.7681 9.13729L16.9107 12.6664C16.5602 12.9211 16.4135 13.3724 16.5474 13.7844L18.4027 19.4947C18.7021 20.416 17.6476 21.1821 16.8639 20.6127L12.0065 17.0836C11.656 16.8289 11.1814 16.8289 10.8309 17.0836L5.9735 20.6127C5.18979 21.1821 4.1353 20.416 4.43466 19.4947L6.29002 13.7844C6.4239 13.3724 6.27724 12.9211 5.92675 12.6664L1.06934 9.13729C0.285624 8.56789 0.688398 7.32827 1.65712 7.32827H7.66122C8.09445 7.32827 8.4784 7.04931 8.61228 6.63729L10.4676 0.927051Z" fill="#EF7E66" fill-opacity="0.9"/>
</svg>
